<svg width="18" height="18" viewBox="0 0 18 18" fill="none" xmlns="http://www.w3.org/2000/svg">
<mask id="path-1-inside-1_195822_28737" fill="white">
<path d="M14.625 11.25C14.9234 11.25 15.2095 11.3685 15.4205 11.5795C15.6315 11.7905 15.75 12.0766 15.75 12.375V14.625C15.75 14.9234 15.6315 15.2095 15.4205 15.4205C15.2095 15.6315 14.9234 15.75 14.625 15.75H12.375C12.0766 15.75 11.7905 15.6315 11.5795 15.4205C11.3685 15.2095 11.25 14.9234 11.25 14.625V14.0625H6.75V14.625C6.75 14.9234 6.63147 15.2095 6.4205 15.4205C6.20952 15.6315 5.92337 15.75 5.625 15.75H3.375C3.07663 15.75 2.79048 15.6315 2.5795 15.4205C2.36853 15.2095 2.25 14.9234 2.25 14.625V12.375C2.25 12.0766 2.36853 11.7905 2.5795 11.5795C2.79048 11.3685 3.07663 11.25 3.375 11.25H3.9375V6.75H3.375C3.07663 6.75 2.79048 6.63147 2.5795 6.4205C2.36853 6.20952 2.25 5.92337 2.25 5.625V3.375C2.25 3.07663 2.36853 2.79048 2.5795 2.5795C2.79048 2.36853 3.07663 2.25 3.375 2.25H5.625C5.92337 2.25 6.20952 2.36853 6.4205 2.5795C6.63147 2.79048 6.75 3.07663 6.75 3.375V3.9375H11.25V3.375C11.25 3.07663 11.3685 2.79048 11.5795 2.5795C11.7905 2.36853 12.0766 2.25 12.375 2.25H14.625C14.9234 2.25 15.2095 2.36853 15.4205 2.5795C15.6315 2.79048 15.75 3.07663 15.75 3.375V5.625C15.75 5.92337 15.6315 6.20952 15.4205 6.4205C15.2095 6.63147 14.9234 6.75 14.625 6.75H14.0625V11.25H14.625ZM12.375 14.625H14.625V12.375H12.375V14.625ZM3.375 14.625H5.625V13.507C5.62407 13.5024 5.62407 13.4976 5.625 13.493V12.375H3.375V14.625ZM5.625 3.375H3.375V5.625H5.625V4.50703C5.62407 4.50239 5.62407 4.49761 5.625 4.49297V3.375ZM14.625 3.375H12.375V5.625H14.625V3.375ZM12.9375 6.75H12.375C12.0766 6.75 11.7905 6.63147 11.5795 6.4205C11.3685 6.20952 11.25 5.92337 11.25 5.625V5.0625H6.75V5.625C6.75 5.92337 6.63147 6.20952 6.4205 6.4205C6.20952 6.63147 5.92337 6.75 5.625 6.75H5.0625V11.25H5.625C5.92337 11.25 6.20952 11.3685 6.4205 11.5795C6.63147 11.7905 6.75 12.0766 6.75 12.375V12.9375H11.25V12.375C11.25 12.0766 11.3685 11.7905 11.5795 11.5795C11.7905 11.3685 12.0766 11.25 12.375 11.25H12.9375V6.75Z"/>
</mask>
<path d="M14.625 11.25C14.9234 11.25 15.2095 11.3685 15.4205 11.5795C15.6315 11.7905 15.75 12.0766 15.75 12.375V14.625C15.75 14.9234 15.6315 15.2095 15.4205 15.4205C15.2095 15.6315 14.9234 15.75 14.625 15.75H12.375C12.0766 15.75 11.7905 15.6315 11.5795 15.4205C11.3685 15.2095 11.25 14.9234 11.25 14.625V14.0625H6.75V14.625C6.75 14.9234 6.63147 15.2095 6.4205 15.4205C6.20952 15.6315 5.92337 15.75 5.625 15.75H3.375C3.07663 15.75 2.79048 15.6315 2.5795 15.4205C2.36853 15.2095 2.25 14.9234 2.25 14.625V12.375C2.25 12.0766 2.36853 11.7905 2.5795 11.5795C2.79048 11.3685 3.07663 11.25 3.375 11.25H3.9375V6.75H3.375C3.07663 6.75 2.79048 6.63147 2.5795 6.4205C2.36853 6.20952 2.25 5.92337 2.25 5.625V3.375C2.25 3.07663 2.36853 2.79048 2.5795 2.5795C2.79048 2.36853 3.07663 2.25 3.375 2.25H5.625C5.92337 2.25 6.20952 2.36853 6.4205 2.5795C6.63147 2.79048 6.75 3.07663 6.75 3.375V3.9375H11.25V3.375C11.25 3.07663 11.3685 2.79048 11.5795 2.5795C11.7905 2.36853 12.0766 2.25 12.375 2.25H14.625C14.9234 2.25 15.2095 2.36853 15.4205 2.5795C15.6315 2.79048 15.75 3.07663 15.75 3.375V5.625C15.75 5.92337 15.6315 6.20952 15.4205 6.4205C15.2095 6.63147 14.9234 6.75 14.625 6.75H14.0625V11.25H14.625ZM12.375 14.625H14.625V12.375H12.375V14.625ZM3.375 14.625H5.625V13.507C5.62407 13.5024 5.62407 13.4976 5.625 13.493V12.375H3.375V14.625ZM5.625 3.375H3.375V5.625H5.625V4.50703C5.62407 4.50239 5.62407 4.49761 5.625 4.49297V3.375ZM14.625 3.375H12.375V5.625H14.625V3.375ZM12.9375 6.75H12.375C12.0766 6.75 11.7905 6.63147 11.5795 6.4205C11.3685 6.20952 11.25 5.92337 11.25 5.625V5.0625H6.75V5.625C6.75 5.92337 6.63147 6.20952 6.4205 6.4205C6.20952 6.63147 5.92337 6.75 5.625 6.75H5.0625V11.25H5.625C5.92337 11.25 6.20952 11.3685 6.4205 11.5795C6.63147 11.7905 6.75 12.0766 6.75 12.375V12.9375H11.25V12.375C11.25 12.0766 11.3685 11.7905 11.5795 11.5795C11.7905 11.3685 12.0766 11.25 12.375 11.25H12.9375V6.75Z" fill="white"/>
<path d="M14.625 15.75V17.9318V15.75ZM12.375 15.75V17.9318V15.75ZM11.25 14.0625V11.8807H13.4318V14.0625H11.25ZM6.75 14.0625H4.56818V11.8807H6.75V14.0625ZM5.625 15.75V17.9318V15.75ZM3.375 15.75V17.9318V15.75ZM2.25 14.625H0.0681818H2.25ZM2.25 12.375H0.0681818H2.25ZM3.9375 11.25H6.11932V13.4318H3.9375V11.25ZM3.9375 6.75V4.56818H6.11932V6.75H3.9375ZM2.25 5.625H0.0681818H2.25ZM2.25 3.375H0.0681818H2.25ZM6.75 3.9375V6.11932H4.56818V3.9375H6.75ZM11.25 3.9375H13.4318V6.11932H11.25V3.9375ZM14.0625 6.75H11.8807V4.56818H14.0625V6.75ZM14.0625 11.25V13.4318H11.8807V11.25H14.0625ZM12.375 14.625V16.8068H10.1932V14.625H12.375ZM14.625 14.625H16.8068V16.8068H14.625V14.625ZM14.625 12.375V10.1932H16.8068V12.375H14.625ZM12.375 12.375H10.1932V10.1932H12.375V12.375ZM3.375 14.625V16.8068H1.19318V14.625H3.375ZM5.625 14.625H7.80682V16.8068H5.625V14.625ZM5.625 13.507L7.76447 13.0792L7.80682 13.291V13.507H5.625ZM5.625 13.493H7.80682V13.709L7.76447 13.9208L5.625 13.493ZM5.625 12.375V10.1932H7.80682V12.375H5.625ZM3.375 12.375H1.19318V10.1932H3.375V12.375ZM5.625 3.375V1.19318H7.80682V3.375H5.625ZM3.375 3.375H1.19318V1.19318H3.375V3.375ZM3.375 5.625V7.80682H1.19318V5.625H3.375ZM5.625 5.625H7.80682V7.80682H5.625V5.625ZM5.625 4.50703L7.76447 4.07922L7.80682 4.29103V4.50703H5.625ZM5.625 4.49297H7.80682V4.70897L7.76447 4.92078L5.625 4.49297ZM14.625 3.375V1.19318H16.8068V3.375H14.625ZM12.375 3.375H10.1932V1.19318H12.375V3.375ZM12.375 5.625V7.80682H10.1932V5.625H12.375ZM14.625 5.625H16.8068V7.80682H14.625V5.625ZM12.9375 6.75V4.56818H15.1193V6.75H12.9375ZM11.25 5.0625V2.88068H13.4318V5.0625H11.25ZM6.75 5.0625H4.56818V2.88068H6.75V5.0625ZM5.0625 6.75H2.88068V4.56818H5.0625V6.75ZM5.0625 11.25V13.4318H2.88068V11.25H5.0625ZM6.75 12.9375V15.1193H4.56818V12.9375H6.75ZM11.25 12.9375H13.4318V15.1193H11.25V12.9375ZM12.9375 11.25H15.1193V13.4318H12.9375V11.25ZM14.625 11.25V9.06818C15.502 9.06818 16.3431 9.41658 16.9633 10.0367L15.4205 11.5795L13.8777 13.1223C14.0759 13.3205 14.3447 13.4318 14.625 13.4318V11.25ZM15.4205 11.5795L16.9633 10.0367C17.5834 10.6569 17.9318 11.498 17.9318 12.375H15.75H13.5682C13.5682 12.6553 13.6795 12.9241 13.8777 13.1223L15.4205 11.5795ZM15.75 12.375H17.9318V14.625H15.75H13.5682V12.375H15.75ZM15.75 14.625H17.9318C17.9318 15.502 17.5834 16.3431 16.9633 16.9633L15.4205 15.4205L13.8777 13.8777C13.6795 14.0759 13.5682 14.3447 13.5682 14.625H15.75ZM15.4205 15.4205L16.9633 16.9633C16.3431 17.5834 15.502 17.9318 14.625 17.9318V15.75V13.5682C14.3447 13.5682 14.0759 13.6795 13.8777 13.8777L15.4205 15.4205ZM14.625 15.75V17.9318H12.375V15.75V13.5682H14.625V15.75ZM12.375 15.75V17.9318C11.498 17.9318 10.6569 17.5834 10.0367 16.9633L11.5795 15.4205L13.1223 13.8777C12.9241 13.6795 12.6553 13.5682 12.375 13.5682V15.75ZM11.5795 15.4205L10.0367 16.9633C9.41658 16.3431 9.06818 15.502 9.06818 14.625H11.25H13.4318C13.4318 14.3447 13.3205 14.0759 13.1223 13.8777L11.5795 15.4205ZM11.25 14.625H9.06818V14.0625H11.25H13.4318V14.625H11.25ZM11.25 14.0625V16.2443H6.75V14.0625V11.8807H11.25V14.0625ZM6.75 14.0625H8.93182V14.625H6.75H4.56818V14.0625H6.75ZM6.75 14.625H8.93182C8.93182 15.502 8.58342 16.3431 7.96327 16.9633L6.4205 15.4205L4.87772 13.8777C4.67953 14.0759 4.56818 14.3447 4.56818 14.625H6.75ZM6.4205 15.4205L7.96327 16.9633C7.34312 17.5834 6.50202 17.9318 5.625 17.9318V15.75V13.5682C5.34471 13.5682 5.07591 13.6795 4.87772 13.8777L6.4205 15.4205ZM5.625 15.75V17.9318H3.375V15.75V13.5682H5.625V15.75ZM3.375 15.75V17.9318C2.49798 17.9318 1.65688 17.5834 1.03673 16.9633L2.5795 15.4205L4.12228 13.8777C3.92409 13.6795 3.65529 13.5682 3.375 13.5682V15.75ZM2.5795 15.4205L1.03673 16.9633C0.416577 16.3431 0.0681818 15.502 0.0681818 14.625H2.25H4.43182C4.43182 14.3447 4.32048 14.0759 4.12228 13.8777L2.5795 15.4205ZM2.25 14.625H0.0681818V12.375H2.25H4.43182V14.625H2.25ZM2.25 12.375H0.0681818C0.0681818 11.498 0.416578 10.6569 1.03673 10.0367L2.5795 11.5795L4.12228 13.1223C4.32048 12.9241 4.43182 12.6553 4.43182 12.375H2.25ZM2.5795 11.5795L1.03673 10.0367C1.65687 9.41658 2.49798 9.06818 3.375 9.06818V11.25V13.4318C3.65529 13.4318 3.92409 13.3205 4.12228 13.1223L2.5795 11.5795ZM3.375 11.25V9.06818H3.9375V11.25V13.4318H3.375V11.25ZM3.9375 11.25H1.75568V6.75H3.9375H6.11932V11.25H3.9375ZM3.9375 6.75V8.93182H3.375V6.75V4.56818H3.9375V6.75ZM3.375 6.75V8.93182C2.49798 8.93182 1.65687 8.58342 1.03673 7.96327L2.5795 6.4205L4.12228 4.87772C3.92409 4.67953 3.65529 4.56818 3.375 4.56818V6.75ZM2.5795 6.4205L1.03673 7.96327C0.416578 7.34312 0.0681818 6.50202 0.0681818 5.625H2.25H4.43182C4.43182 5.34471 4.32048 5.07591 4.12228 4.87772L2.5795 6.4205ZM2.25 5.625H0.0681818V3.375H2.25H4.43182V5.625H2.25ZM2.25 3.375H0.0681818C0.0681818 2.49798 0.416578 1.65688 1.03673 1.03673L2.5795 2.5795L4.12228 4.12228C4.32048 3.92409 4.43182 3.65529 4.43182 3.375H2.25ZM2.5795 2.5795L1.03673 1.03673C1.65687 0.416578 2.49798 0.068182 3.375 0.068182V2.25V4.43182C3.65529 4.43182 3.92409 4.32047 4.12228 4.12228L2.5795 2.5795ZM3.375 2.25V0.068182H5.625V2.25V4.43182H3.375V2.25ZM5.625 2.25V0.068182C6.50202 0.068182 7.34313 0.416579 7.96327 1.03673L6.4205 2.5795L4.87772 4.12228C5.07591 4.32047 5.34471 4.43182 5.625 4.43182V2.25ZM6.4205 2.5795L7.96327 1.03673C8.58342 1.65687 8.93182 2.49798 8.93182 3.375H6.75H4.56818C4.56818 3.65529 4.67953 3.92409 4.87772 4.12228L6.4205 2.5795ZM6.75 3.375H8.93182V3.9375H6.75H4.56818V3.375H6.75ZM6.75 3.9375V1.75568H11.25V3.9375V6.11932H6.75V3.9375ZM11.25 3.9375H9.06818V3.375H11.25H13.4318V3.9375H11.25ZM11.25 3.375H9.06818C9.06818 2.49798 9.41658 1.65687 10.0367 1.03673L11.5795 2.5795L13.1223 4.12228C13.3205 3.92409 13.4318 3.65529 13.4318 3.375H11.25ZM11.5795 2.5795L10.0367 1.03673C10.6569 0.416579 11.498 0.068182 12.375 0.068182V2.25V4.43182C12.6553 4.43182 12.9241 4.32047 13.1223 4.12228L11.5795 2.5795ZM12.375 2.25V0.068182H14.625V2.25V4.43182H12.375V2.25ZM14.625 2.25V0.068182C15.502 0.068182 16.3431 0.416579 16.9633 1.03673L15.4205 2.5795L13.8777 4.12228C14.0759 4.32047 14.3447 4.43182 14.625 4.43182V2.25ZM15.4205 2.5795L16.9633 1.03673C17.5834 1.65687 17.9318 2.49798 17.9318 3.375H15.75H13.5682C13.5682 3.65529 13.6795 3.92409 13.8777 4.12228L15.4205 2.5795ZM15.75 3.375H17.9318V5.625H15.75H13.5682V3.375H15.75ZM15.75 5.625H17.9318C17.9318 6.50202 17.5834 7.34313 16.9633 7.96327L15.4205 6.4205L13.8777 4.87772C13.6795 5.07591 13.5682 5.34471 13.5682 5.625H15.75ZM15.4205 6.4205L16.9633 7.96327C16.3431 8.58342 15.502 8.93182 14.625 8.93182V6.75V4.56818C14.3447 4.56818 14.0759 4.67953 13.8777 4.87772L15.4205 6.4205ZM14.625 6.75V8.93182H14.0625V6.75V4.56818H14.625V6.75ZM14.0625 6.75H16.2443V11.25H14.0625H11.8807V6.75H14.0625ZM14.0625 11.25V9.06818H14.625V11.25V13.4318H14.0625V11.25ZM12.375 14.625V12.4432H14.625V14.625V16.8068H12.375V14.625ZM14.625 14.625H12.4432V12.375H14.625H16.8068V14.625H14.625ZM14.625 12.375V14.5568H12.375V12.375V10.1932H14.625V12.375ZM12.375 12.375H14.5568V14.625H12.375H10.1932V12.375H12.375ZM3.375 14.625V12.4432H5.625V14.625V16.8068H3.375V14.625ZM5.625 14.625H3.44318V13.507H5.625H7.80682V14.625H5.625ZM5.625 13.507L3.48553 13.9348C3.42814 13.6478 3.42814 13.3522 3.48553 13.0652L5.625 13.493L7.76447 13.9208C7.82001 13.643 7.82001 13.357 7.76447 13.0792L5.625 13.507ZM5.625 13.493H3.44318V12.375H5.625H7.80682V13.493H5.625ZM5.625 12.375V14.5568H3.375V12.375V10.1932H5.625V12.375ZM3.375 12.375H5.55682V14.625H3.375H1.19318V12.375H3.375ZM5.625 3.375V5.55682H3.375V3.375V1.19318H5.625V3.375ZM3.375 3.375H5.55682V5.625H3.375H1.19318V3.375H3.375ZM3.375 5.625V3.44318H5.625V5.625V7.80682H3.375V5.625ZM5.625 5.625H3.44318V4.50703H5.625H7.80682V5.625H5.625ZM5.625 4.50703L3.48553 4.93484C3.42814 4.64779 3.42814 4.35221 3.48553 4.06516L5.625 4.49297L7.76447 4.92078C7.82001 4.64301 7.82001 4.35699 7.76447 4.07922L5.625 4.50703ZM5.625 4.49297H3.44318V3.375H5.625H7.80682V4.49297H5.625ZM14.625 3.375V5.55682H12.375V3.375V1.19318H14.625V3.375ZM12.375 3.375H14.5568V5.625H12.375H10.1932V3.375H12.375ZM12.375 5.625V3.44318H14.625V5.625V7.80682H12.375V5.625ZM14.625 5.625H12.4432V3.375H14.625H16.8068V5.625H14.625ZM12.9375 6.75V8.93182H12.375V6.75V4.56818H12.9375V6.75ZM12.375 6.75V8.93182C11.498 8.93182 10.6569 8.58342 10.0367 7.96327L11.5795 6.4205L13.1223 4.87772C12.9241 4.67953 12.6553 4.56818 12.375 4.56818V6.75ZM11.5795 6.4205L10.0367 7.96327C9.41658 7.34313 9.06818 6.50202 9.06818 5.625H11.25H13.4318C13.4318 5.34471 13.3205 5.07591 13.1223 4.87772L11.5795 6.4205ZM11.25 5.625H9.06818V5.0625H11.25H13.4318V5.625H11.25ZM11.25 5.0625V7.24432H6.75V5.0625V2.88068H11.25V5.0625ZM6.75 5.0625H8.93182V5.625H6.75H4.56818V5.0625H6.75ZM6.75 5.625H8.93182C8.93182 6.50202 8.58342 7.34313 7.96327 7.96327L6.4205 6.4205L4.87772 4.87772C4.67953 5.07591 4.56818 5.34471 4.56818 5.625H6.75ZM6.4205 6.4205L7.96327 7.96327C7.34313 8.58342 6.50202 8.93182 5.625 8.93182V6.75V4.56818C5.34471 4.56818 5.07591 4.67953 4.87772 4.87772L6.4205 6.4205ZM5.625 6.75V8.93182H5.0625V6.75V4.56818H5.625V6.75ZM5.0625 6.75H7.24432V11.25H5.0625H2.88068V6.75H5.0625ZM5.0625 11.25V9.06818H5.625V11.25V13.4318H5.0625V11.25ZM5.625 11.25V9.06818C6.50202 9.06818 7.34313 9.41658 7.96327 10.0367L6.4205 11.5795L4.87772 13.1223C5.07591 13.3205 5.34471 13.4318 5.625 13.4318V11.25ZM6.4205 11.5795L7.96327 10.0367C8.58342 10.6569 8.93182 11.498 8.93182 12.375H6.75H4.56818C4.56818 12.6553 4.67953 12.9241 4.87772 13.1223L6.4205 11.5795ZM6.75 12.375H8.93182V12.9375H6.75H4.56818V12.375H6.75ZM6.75 12.9375V10.7557H11.25V12.9375V15.1193H6.75V12.9375ZM11.25 12.9375H9.06818V12.375H11.25H13.4318V12.9375H11.25ZM11.25 12.375H9.06818C9.06818 11.498 9.41658 10.6569 10.0367 10.0367L11.5795 11.5795L13.1223 13.1223C13.3205 12.9241 13.4318 12.6553 13.4318 12.375H11.25ZM11.5795 11.5795L10.0367 10.0367C10.6569 9.41658 11.498 9.06818 12.375 9.06818V11.25V13.4318C12.6553 13.4318 12.9241 13.3205 13.1223 13.1223L11.5795 11.5795ZM12.375 11.25V9.06818H12.9375V11.25V13.4318H12.375V11.25ZM12.9375 11.25H10.7557V6.75H12.9375H15.1193V11.25H12.9375Z" fill="#6C6C6C" mask="url(#path-1-inside-1_195822_28737)"/>
</svg>
