<svg width="217" height="217" viewBox="0 0 217 217" fill="none" xmlns="http://www.w3.org/2000/svg">
<path d="M59.9121 76.2705C61.9723 72.7025 67.1224 72.7026 69.1826 76.2705L101.63 132.471C103.69 136.039 101.114 140.499 96.9941 140.499H32.1006C27.9803 140.499 25.4047 136.039 27.4648 132.471L59.9121 76.2705ZM145.551 76.2705C147.611 72.7025 152.761 72.7026 154.821 76.2705L187.269 132.471C189.329 136.039 186.753 140.499 182.633 140.499H117.739C113.619 140.499 111.043 136.039 113.104 132.471L145.551 76.2705ZM107.368 127.119L77.2393 74.9336H137.498L107.368 127.119ZM102.731 2.67676C104.792 -0.891251 109.942 -0.89118 112.002 2.67676L144.449 58.877C146.509 62.4452 143.934 66.9053 139.813 66.9053H74.9199C70.7997 66.9053 68.224 62.4452 70.2842 58.877L102.731 2.67676Z" fill="#272727"/>
<path d="M69.1865 196.564V188.778H70.1293V195.727H73.7482V196.564H69.1865Z" fill="#5D5D5D"/>
<path d="M82.458 188.778H83.4008V193.933C83.4008 194.465 83.2753 194.94 83.0244 195.359C82.7761 195.774 82.4251 196.102 81.9714 196.343C81.5178 196.581 80.9856 196.7 80.3748 196.7C79.7641 196.7 79.2319 196.581 78.7782 196.343C78.3246 196.102 77.9723 195.774 77.7215 195.359C77.4731 194.94 77.3489 194.465 77.3489 193.933V188.778H78.2917V193.857C78.2917 194.237 78.3753 194.575 78.5426 194.872C78.7098 195.166 78.948 195.398 79.2572 195.568C79.5689 195.735 79.9415 195.819 80.3748 195.819C80.8082 195.819 81.1807 195.735 81.4925 195.568C81.8042 195.398 82.0424 195.166 82.2071 194.872C82.3744 194.575 82.458 194.237 82.458 193.857V188.778Z" fill="#5D5D5D"/>
<path d="M93.5979 188.778V196.564H92.6855L88.4431 190.451H88.3671V196.564H87.4244V188.778H88.3367L92.5943 194.906H92.6703V188.778H93.5979Z" fill="#5D5D5D"/>
<path d="M97.9446 196.564H96.9562L99.8149 188.778H100.788L103.647 196.564H102.658L100.332 190.01H100.271L97.9446 196.564ZM98.3095 193.522H102.293V194.359H98.3095V193.522Z" fill="#5D5D5D"/>
<path d="M118.417 191.211H117.474C117.418 190.94 117.321 190.702 117.181 190.497C117.044 190.291 116.877 190.119 116.679 189.98C116.484 189.838 116.268 189.731 116.029 189.66C115.791 189.589 115.543 189.554 115.284 189.554C114.813 189.554 114.386 189.673 114.003 189.911C113.623 190.149 113.32 190.5 113.095 190.964C112.872 191.428 112.76 191.997 112.76 192.671C112.76 193.345 112.872 193.914 113.095 194.378C113.32 194.842 113.623 195.193 114.003 195.431C114.386 195.669 114.813 195.788 115.284 195.788C115.543 195.788 115.791 195.753 116.029 195.682C116.268 195.611 116.484 195.506 116.679 195.366C116.877 195.224 117.044 195.051 117.181 194.845C117.321 194.638 117.418 194.399 117.474 194.131H118.417C118.346 194.529 118.217 194.885 118.029 195.199C117.841 195.513 117.608 195.781 117.33 196.001C117.051 196.219 116.738 196.385 116.391 196.499C116.046 196.613 115.677 196.67 115.284 196.67C114.62 196.67 114.03 196.508 113.513 196.183C112.996 195.859 112.589 195.398 112.293 194.8C111.996 194.202 111.848 193.492 111.848 192.671C111.848 191.85 111.996 191.14 112.293 190.542C112.589 189.944 112.996 189.483 113.513 189.158C114.03 188.834 114.62 188.672 115.284 188.672C115.677 188.672 116.046 188.729 116.391 188.843C116.738 188.957 117.051 189.124 117.33 189.345C117.608 189.563 117.841 189.829 118.029 190.143C118.217 190.455 118.346 190.811 118.417 191.211Z" fill="#5D5D5D"/>
<path d="M122.081 196.564V188.778H123.024V192.245H127.175V188.778H128.118V196.564H127.175V193.082H123.024V196.564H122.081Z" fill="#5D5D5D"/>
<path d="M132.465 196.564H131.477L134.336 188.778H135.309L138.168 196.564H137.179L134.853 190.01H134.792L132.465 196.564ZM132.83 193.522H136.814V194.359H132.83V193.522Z" fill="#5D5D5D"/>
<path d="M140.186 189.615V188.778H146.025V189.615H143.577V196.564H142.634V189.615H140.186Z" fill="#5D5D5D"/>
<path d="M0 177.721V170.606C5.59964e-05 170.237 0.299522 169.938 0.668945 169.938H7.7832L0 177.721Z" fill="#5D5D5D"/>
<path d="M0 208.496V215.61C5.59964e-05 215.98 0.299522 216.279 0.668945 216.279H7.7832L0 208.496Z" fill="#5D5D5D"/>
<path d="M216.281 177.721V170.606C216.281 170.237 215.982 169.938 215.612 169.938H208.498L216.281 177.721Z" fill="#5D5D5D"/>
<path d="M216.281 208.496V215.61C216.281 215.98 215.982 216.279 215.612 216.279H208.498L216.281 208.496Z" fill="#5D5D5D"/>
</svg>
