<svg width="18" height="18" viewBox="0 0 18 18" fill="none" xmlns="http://www.w3.org/2000/svg">
<mask id="path-1-inside-1_195822_28735" fill="white">
<path d="M15.75 9C15.75 8.85082 15.6907 8.70774 15.5852 8.60225C15.4798 8.49676 15.3367 8.4375 15.1875 8.4375H2.8125C2.66332 8.4375 2.52024 8.49676 2.41475 8.60225C2.30926 8.70774 2.25 8.85082 2.25 9C2.25 9.14919 2.30926 9.29226 2.41475 9.39775C2.52024 9.50324 2.66332 9.5625 2.8125 9.5625H15.1875C15.3367 9.5625 15.4798 9.50324 15.5852 9.39775C15.6907 9.29226 15.75 9.14919 15.75 9Z"/>
</mask>
<path d="M15.75 9C15.75 8.85082 15.6907 8.70774 15.5852 8.60225C15.4798 8.49676 15.3367 8.4375 15.1875 8.4375H2.8125C2.66332 8.4375 2.52024 8.49676 2.41475 8.60225C2.30926 8.70774 2.25 8.85082 2.25 9C2.25 9.14919 2.30926 9.29226 2.41475 9.39775C2.52024 9.50324 2.66332 9.5625 2.8125 9.5625H15.1875C15.3367 9.5625 15.4798 9.50324 15.5852 9.39775C15.6907 9.29226 15.75 9.14919 15.75 9Z" fill="white"/>
<path d="M15.75 9H13.5682C13.5682 9.42947 13.7388 9.84135 14.0425 10.145L15.5852 8.60225L17.128 7.05948C17.6427 7.57414 17.9318 8.27217 17.9318 9H15.75ZM15.5852 8.60225L14.0425 10.145C14.3462 10.4487 14.758 10.6193 15.1875 10.6193V8.4375V6.25568C15.9153 6.25568 16.6134 6.54481 17.128 7.05948L15.5852 8.60225ZM15.1875 8.4375V10.6193H2.8125V8.4375V6.25568H15.1875V8.4375ZM2.8125 8.4375V10.6193C3.24197 10.6193 3.65385 10.4487 3.95753 10.145L2.41475 8.60225L0.871974 7.05948C1.38664 6.54481 2.08467 6.25568 2.8125 6.25568V8.4375ZM2.41475 8.60225L3.95753 10.145C4.26121 9.84135 4.43182 9.42947 4.43182 9H2.25H0.0681818C0.0681818 8.27216 0.357314 7.57414 0.871974 7.05948L2.41475 8.60225ZM2.25 9H4.43182C4.43182 8.57053 4.26121 8.15865 3.95753 7.85497L2.41475 9.39775L0.871974 10.9405C0.357316 10.4259 0.0681818 9.72784 0.0681818 9H2.25ZM2.41475 9.39775L3.95753 7.85497C3.65385 7.55129 3.24197 7.38068 2.8125 7.38068V9.5625V11.7443C2.08466 11.7443 1.38663 11.4552 0.871974 10.9405L2.41475 9.39775ZM2.8125 9.5625V7.38068H15.1875V9.5625V11.7443H2.8125V9.5625ZM15.1875 9.5625V7.38068C14.758 7.38068 14.3462 7.55129 14.0425 7.85497L15.5852 9.39775L17.128 10.9405C16.6134 11.4552 15.9153 11.7443 15.1875 11.7443V9.5625ZM15.5852 9.39775L14.0425 7.85497C13.7388 8.15865 13.5682 8.57054 13.5682 9H15.75H17.9318C17.9318 9.72784 17.6427 10.4259 17.128 10.9405L15.5852 9.39775Z" fill="#6C6C6C" mask="url(#path-1-inside-1_195822_28735)"/>
</svg>
